<svg width="22" height="23" viewBox="0 0 22 23" fill="none" xmlns="http://www.w3.org/2000/svg">
<path d="M19.5 1H2.5C1.39543 1 0.5 1.89543 0.5 3V20C0.5 21.1046 1.39543 22 2.5 22H19.5C20.6046 22 21.5 21.1046 21.5 20V3C21.5 1.89543 20.6046 1 19.5 1Z" stroke="white"/>
<path d="M3.5 11C4.25966 16.3176 5.68056 14.2414 6.39275 12.306C6.46698 12.1043 6.5 11.8904 6.5 11.6755V5.48064C6.5 5.17686 6.63572 4.88466 6.88577 4.71216C8.60848 3.52367 9.34448 4.37794 9.5 5.00002V17C9.8261 18.3044 10.274 18.7669 10.7355 18.7669C12.4432 18.7667 12.5 16.1109 12.5 14.4033V8.51952C12.5 8.18688 13.0616 7.46189 13.3221 7.25497V7.25497C15.1612 5.79389 15 9.18045 15 11.5293V13.526C15 13.8323 15.1037 14.1353 15.3192 14.353C17.1245 16.1772 18.1848 14.2608 18.5 13" stroke="white"/>
</svg>
