<svg width="20" height="24" viewBox="0 0 20 24" fill="none" xmlns="http://www.w3.org/2000/svg">
<path d="M6 10L9.30155 8.1658C10.0238 7.76455 10.9185 7.84873 11.5532 8.37767L17.7685 13.5571C18.6895 14.3246 18.733 15.7244 17.8614 16.5476L11.6721 22.393C10.988 23.0391 9.94604 23.121 9.16946 22.5896L1.87063 17.5957C1.32578 17.2229 1 16.6053 1 15.9451V14" stroke="white"/>
<path d="M14.5 13.5L13.9458 14.3314C13.6597 14.7604 13.2189 15.0625 12.7155 15.1743L9.95226 15.7884C9.35126 15.9219 8.72224 15.7713 8.24699 15.3799L2.29831 10.481C1.35252 9.70208 1.32305 8.26359 2.23613 7.44662L8.84573 1.53277C9.52527 0.924757 10.53 0.853352 11.2887 1.35915L18.5547 6.20313C18.8329 6.3886 19 6.70083 19 7.03518V9" stroke="white"/>
</svg>
