<svg width="400" height="160" viewBox="0 0 495 311" fill="none" xmlns="http://www.w3.org/2000/svg">
<g opacity="0.2" filter="url(#filter0_f_835_2246)">
<ellipse cx="402" cy="144.508" rx="81" ry="75.5085" fill="#8B1496"/>
</g>
<g opacity="0.3" filter="url(#filter1_f_835_2246)">
<ellipse cx="404.17" cy="142.768" rx="41.2232" ry="38.3304" fill="#801D89"/>
</g>
<g opacity="0.2" filter="url(#filter2_f_835_2246)">
<ellipse cx="192.5" cy="235.534" rx="58.5" ry="54.5339" fill="#8B1496"/>
</g>
<g opacity="0.3" filter="url(#filter3_f_835_2246)">
<ellipse cx="194.067" cy="234.277" rx="29.7723" ry="27.683" fill="#801D89"/>
</g>
<g opacity="0.6">
<path d="M16.0504 248.429C73.6004 235.334 104.567 210.45 119.446 189.547C130.169 174.482 135.08 155.104 148.595 142.483C186.074 107.483 226.369 132.084 244.147 152.021C244.38 152.282 244.636 152.533 244.903 152.759C285.864 187.409 313.204 167.155 317.77 140.558C320.654 123.755 313.588 106.514 315.641 89.5897C320.228 51.7828 340.898 27.9547 352.589 19.8395C386.791 -5.96384 432.969 9.93845 451.783 21.115C468.161 31.3079 474.502 54.5763 475.626 64.9364" stroke="#DA08EC" stroke-width="0.275698"/>
<path d="M16.2577 251.178C73.8077 238.083 104.774 213.2 119.654 192.296C130.376 177.231 135.287 157.853 148.802 145.232C186.281 110.232 226.576 134.833 244.354 154.77C244.587 155.032 244.843 155.282 245.11 155.508C286.071 190.158 313.412 169.905 317.977 143.307C320.861 126.504 313.795 109.263 315.848 92.3388C320.435 54.5319 341.105 30.7039 352.796 22.5887C386.998 -3.21465 433.176 12.6876 451.99 23.8642C468.368 34.0571 474.71 57.3255 475.833 67.6856" stroke="#DA08EC" stroke-width="0.275698"/>
<path d="M16.465 253.928C74.015 240.832 104.982 215.949 119.861 195.045C130.584 179.98 135.495 160.602 149.009 147.982C186.488 112.981 226.783 137.582 244.561 157.519C244.795 157.781 245.05 158.031 245.318 158.257C286.279 192.907 313.619 172.654 318.184 146.056C321.068 129.254 314.002 112.012 316.056 95.088C320.642 57.2811 341.313 33.4531 353.003 25.3379C387.205 -0.4655 433.384 15.4368 452.198 26.6133C468.575 36.8063 474.917 60.0747 476.04 70.4348" stroke="#DA08EC" stroke-width="0.275698"/>
<path d="M17.6934 256.6C75.2434 243.505 106.21 218.621 121.089 197.717C131.812 182.653 136.723 163.275 150.238 150.654C187.717 115.653 228.012 140.255 245.79 160.191C246.023 160.453 246.279 160.703 246.546 160.93C287.507 195.579 314.847 175.326 319.413 148.728C322.297 131.926 315.231 114.684 317.284 97.7602C321.871 59.9533 342.541 36.1252 354.232 28.01C388.434 2.20667 434.612 18.109 453.426 29.2855C469.804 39.4784 476.145 62.7469 477.269 73.107" stroke="#DA08EC" stroke-width="0.275698"/>
<path d="M17.9007 259.349C75.4507 246.254 106.417 221.37 121.297 200.466C132.019 185.402 136.93 166.024 150.445 153.403C187.924 118.402 228.219 143.004 245.997 162.94C246.23 163.202 246.486 163.452 246.753 163.679C287.714 198.328 315.055 178.075 319.62 151.477C322.504 134.675 315.438 117.433 317.491 100.509C322.078 62.7024 342.748 38.8744 354.439 30.7592C388.641 4.95583 434.819 20.8581 453.633 32.0347C470.011 42.2276 476.353 65.496 477.476 75.8561" stroke="#DA08EC" stroke-width="0.275698"/>
<path d="M18.108 262.098C75.658 249.003 106.625 224.119 121.504 203.216C132.227 188.151 137.138 168.773 150.652 156.152C188.131 121.151 228.426 145.753 246.204 165.69C246.438 165.951 246.693 166.201 246.961 166.428C287.922 201.078 315.262 180.824 319.827 154.226C322.711 137.424 315.645 120.182 317.699 103.259C322.285 65.4516 342.956 41.6236 354.646 33.5084C388.848 7.70502 435.027 23.6073 453.841 34.7839C470.218 44.9768 476.56 68.2452 477.683 78.6053" stroke="#DA08EC" stroke-width="0.275698"/>
<path d="M18.3153 264.847C75.8653 251.752 106.832 226.868 121.711 205.965C132.434 190.9 137.345 171.522 150.859 158.901C188.338 123.901 228.633 148.502 246.412 168.439C246.645 168.7 246.9 168.951 247.168 169.177C288.129 203.827 315.469 183.574 320.035 156.976C322.919 140.173 315.853 122.932 317.906 106.008C322.493 68.2008 343.163 44.3728 354.854 36.2576C389.056 10.4542 435.234 26.3565 454.048 37.533C470.426 47.726 476.767 70.9944 477.891 81.3545" stroke="#DA08EC" stroke-width="0.275698"/>
<path d="M18.5226 267.596C76.0726 254.501 107.039 229.618 121.918 208.714C132.641 193.649 137.552 174.271 151.067 161.65C188.546 126.65 228.841 151.251 246.619 171.188C246.852 171.45 247.108 171.7 247.375 171.926C288.336 206.576 315.676 186.323 320.242 159.725C323.126 142.923 316.06 125.681 318.113 108.757C322.7 70.95 343.37 47.1219 355.061 39.0067C389.263 13.2034 435.441 29.1056 454.255 40.2822C470.633 50.4751 476.975 73.7435 478.098 84.1036" stroke="#DA08EC" stroke-width="0.275698"/>
<path d="M18.7299 270.346C76.2799 257.251 107.247 232.367 122.126 211.463C132.849 196.398 137.76 177.02 151.274 164.4C188.753 129.399 229.048 154 246.826 173.937C247.059 174.199 247.315 174.449 247.583 174.675C288.544 209.325 315.884 189.072 320.449 162.474C323.333 145.672 316.267 128.43 318.32 111.506C322.907 73.6991 343.578 49.8711 355.268 41.7559C389.47 15.9525 435.649 31.8548 454.463 43.0314C470.84 53.2243 477.182 76.4927 478.305 86.8528" stroke="#DA08EC" stroke-width="0.275698"/>
<path d="M18.9372 273.095C76.4872 260 107.454 235.116 122.333 214.212C133.056 199.148 137.967 179.77 151.481 167.149C188.96 132.148 229.255 156.75 247.033 176.686C247.267 176.948 247.522 177.198 247.79 177.425C288.751 212.074 316.091 191.821 320.656 165.223C323.54 148.421 316.475 131.179 318.528 114.255C323.114 76.4483 343.785 52.6203 355.476 44.5051C389.678 18.7017 435.856 34.604 454.67 45.7806C471.048 55.9735 477.389 79.2419 478.513 89.602" stroke="#DA08EC" stroke-width="0.275698"/>
<path d="M19.1446 275.844C76.6946 262.749 107.661 237.865 122.54 216.962C133.263 201.897 138.174 182.519 151.689 169.898C189.168 134.897 229.463 159.499 247.241 179.436C247.474 179.697 247.73 179.947 247.997 180.174C288.958 214.823 316.298 194.57 320.864 167.972C323.748 151.17 316.682 133.928 318.735 117.004C323.322 79.1975 343.992 55.3694 355.683 47.2542C389.885 21.4509 436.063 37.3532 454.877 48.5297C471.255 58.7226 477.596 81.9911 478.72 92.3512" stroke="#DA08EC" stroke-width="0.275698"/>
<path d="M19.3519 278.593C76.9019 265.498 107.869 240.614 122.748 219.711C133.471 204.646 138.381 185.268 151.896 172.647C189.375 137.646 229.67 162.248 247.448 182.185C247.681 182.446 247.937 182.697 248.205 182.923C289.165 217.573 316.506 197.319 321.071 170.722C323.955 153.919 316.889 136.677 318.942 119.754C323.529 81.9467 344.199 58.1186 355.89 50.0034C390.092 24.2001 436.271 40.1023 455.084 51.2789C471.462 61.4718 477.804 84.7402 478.927 95.1003" stroke="#DA08EC" stroke-width="0.275698"/>
<path d="M19.6283 282.259C77.1783 269.164 108.145 244.28 123.024 223.376C133.747 208.312 138.658 188.933 152.172 176.313C189.651 141.312 229.946 165.913 247.725 185.85C247.958 186.112 248.213 186.362 248.481 186.588C289.442 221.238 316.782 200.985 321.347 174.387C324.231 157.585 317.166 140.343 319.219 123.419C323.805 85.6122 344.476 61.7842 356.167 53.669C390.369 27.8656 436.547 43.7679 455.361 54.9445C471.739 65.1374 478.08 88.4058 479.204 98.7659" stroke="#DA08EC" stroke-width="0.275698"/>
<path d="M19.9046 285.924C77.4546 272.829 108.421 247.945 123.3 227.042C134.023 211.977 138.934 192.599 152.449 179.978C189.928 144.978 230.223 169.579 248.001 189.516C248.234 189.777 248.49 190.028 248.757 190.254C289.718 224.904 317.058 204.65 321.624 178.053C324.508 161.25 317.442 144.009 319.495 127.085C324.082 89.2778 344.752 65.4497 356.443 57.3345C390.645 31.5312 436.823 47.4335 455.637 58.61C472.015 68.8029 478.357 92.0714 479.48 102.431" stroke="#DA08EC" stroke-width="0.275698"/>
<path d="M20.1119 288.673C77.6619 275.578 108.629 250.695 123.508 229.791C134.231 214.726 139.142 195.348 152.656 182.727C190.135 147.727 230.43 172.328 248.208 192.265C248.441 192.527 248.697 192.777 248.965 193.003C289.926 227.653 317.266 207.4 321.831 180.802C324.715 164 317.649 146.758 319.702 129.834C324.289 92.027 344.96 68.1989 356.65 60.0837C390.852 34.2804 437.031 50.1826 455.845 61.3592C472.222 71.5521 478.564 94.8205 479.687 105.181" stroke="#DA08EC" stroke-width="0.275698"/>
<path d="M20.3193 291.423C77.8693 278.327 108.836 253.444 123.715 232.54C134.438 217.475 139.349 198.097 152.863 185.477C190.342 150.476 230.637 175.077 248.416 195.014C248.649 195.276 248.904 195.526 249.172 195.752C290.133 230.402 317.473 210.149 322.038 183.551C324.922 166.749 317.857 149.507 319.91 132.583C324.496 94.7761 345.167 70.9481 356.858 62.8329C391.06 37.0295 437.238 52.9318 456.052 64.1084C472.43 74.3013 478.771 97.5697 479.895 107.93" stroke="#DA08EC" stroke-width="0.275698"/>
<path d="M20.5957 295.088C78.1457 281.993 109.112 257.109 123.991 236.206C134.714 221.141 139.625 201.763 153.14 189.142C190.619 154.141 230.914 178.743 248.692 198.68C248.925 198.941 249.181 199.192 249.448 199.418C290.409 234.068 317.749 213.814 322.315 187.217C325.199 170.414 318.133 153.173 320.186 136.249C324.773 98.4417 345.443 74.6137 357.134 66.4985C391.336 40.6951 437.514 56.5974 456.328 67.774C472.706 77.9669 479.048 101.235 480.171 111.595" stroke="#DA08EC" stroke-width="0.275698"/>
<path d="M20.8721 298.754C78.4221 285.659 109.389 260.775 124.268 239.871C134.991 224.807 139.902 205.428 153.416 192.808C190.895 157.807 231.19 182.408 248.968 202.345C249.202 202.607 249.457 202.857 249.725 203.083C290.686 237.733 318.026 217.48 322.591 190.882C325.475 174.08 318.409 156.838 320.463 139.914C325.049 102.107 345.72 78.2792 357.41 70.164C391.612 44.3607 437.791 60.2629 456.605 71.4395C472.982 81.6324 479.324 104.901 480.447 115.261" stroke="#DA08EC" stroke-width="0.275698"/>
<path d="M21.0794 301.503C78.6294 288.408 109.596 263.524 124.475 242.62C135.198 227.556 140.109 208.178 153.623 195.557C191.102 160.556 231.398 185.158 249.176 205.094C249.409 205.356 249.664 205.606 249.932 205.833C290.893 240.482 318.233 220.229 322.799 193.631C325.683 176.829 318.617 159.587 320.67 142.663C325.257 104.856 345.927 81.0284 357.618 72.9132C391.82 47.1098 437.998 63.0121 456.812 74.1887C473.19 84.3816 479.531 107.65 480.655 118.01" stroke="#DA08EC" stroke-width="0.275698"/>
<path d="M21.3558 305.169C78.9058 292.073 109.873 267.19 124.752 246.286C135.474 231.221 140.385 211.843 153.9 199.222C191.379 164.222 231.674 188.823 249.452 208.76C249.685 209.022 249.941 209.272 250.208 209.498C291.169 244.148 318.51 223.895 323.075 197.297C325.959 180.495 318.893 163.253 320.946 146.329C325.533 108.522 346.203 84.694 357.894 76.5788C392.096 50.7754 438.274 66.6777 457.088 77.8543C473.466 88.0472 479.808 111.316 480.931 121.676" stroke="#DA08EC" stroke-width="0.275698"/>
<path d="M21.5631 307.918C79.1131 294.823 110.08 269.939 124.959 249.035C135.682 233.97 140.593 214.592 154.107 201.972C191.586 166.971 231.881 191.572 249.659 211.509C249.893 211.771 250.148 212.021 250.416 212.247C291.377 246.897 318.717 226.644 323.282 200.046C326.166 183.244 319.1 166.002 321.154 149.078C325.74 111.271 346.411 87.4431 358.101 79.3279C392.303 53.5246 438.482 69.4269 457.296 80.6034C473.673 90.7963 480.015 114.065 481.138 124.425" stroke="#DA08EC" stroke-width="0.275698"/>
<path d="M21.7703 310.667C79.3203 297.572 110.287 272.688 125.166 251.784C135.889 236.72 140.8 217.342 154.314 204.721C191.793 169.72 232.088 194.322 249.867 214.258C250.1 214.52 250.355 214.77 250.623 214.997C291.584 249.646 318.924 229.393 323.49 202.795C326.374 185.993 319.308 168.751 321.361 151.827C325.948 114.02 346.618 90.1923 358.309 82.0771C392.511 56.2737 438.689 72.176 457.503 83.3526C473.881 93.5455 480.222 116.814 481.346 127.174" stroke="#DA08EC" stroke-width="0.275698"/>
</g>
<defs>
<filter id="filter0_f_835_2246" x="309.246" y="57.2462" width="185.508" height="174.525" filterUnits="userSpaceOnUse" color-interpolation-filters="sRGB">
<feFlood flood-opacity="0" result="BackgroundImageFix"/>
<feBlend mode="normal" in="SourceGraphic" in2="BackgroundImageFix" result="shape"/>
<feGaussianBlur stdDeviation="5.8769" result="effect1_foregroundBlur_835_2246"/>
</filter>
<filter id="filter1_f_835_2246" x="353.659" y="95.1499" width="101.022" height="95.2359" filterUnits="userSpaceOnUse" color-interpolation-filters="sRGB">
<feFlood flood-opacity="0" result="BackgroundImageFix"/>
<feBlend mode="normal" in="SourceGraphic" in2="BackgroundImageFix" result="shape"/>
<feGaussianBlur stdDeviation="4.6438" result="effect1_foregroundBlur_835_2246"/>
</filter>
<filter id="filter2_f_835_2246" x="125.511" y="172.511" width="133.978" height="126.046" filterUnits="userSpaceOnUse" color-interpolation-filters="sRGB">
<feFlood flood-opacity="0" result="BackgroundImageFix"/>
<feBlend mode="normal" in="SourceGraphic" in2="BackgroundImageFix" result="shape"/>
<feGaussianBlur stdDeviation="4.24442" result="effect1_foregroundBlur_835_2246"/>
</filter>
<filter id="filter3_f_835_2246" x="157.587" y="199.886" width="72.9601" height="68.7815" filterUnits="userSpaceOnUse" color-interpolation-filters="sRGB">
<feFlood flood-opacity="0" result="BackgroundImageFix"/>
<feBlend mode="normal" in="SourceGraphic" in2="BackgroundImageFix" result="shape"/>
<feGaussianBlur stdDeviation="3.35385" result="effect1_foregroundBlur_835_2246"/>
</filter>
</defs>
</svg>
