<svg width="43" height="51" viewBox="0 0 43 51" fill="none" xmlns="http://www.w3.org/2000/svg">
<path d="M1.02748 48.5551C0.509033 35.4862 7.12946 9.72823 37.7787 1.43288C38.886 1.1332 40.0455 1 41.1926 1H42C38.9831 2.43144 32.0805 6.51105 28.605 11.3779C27.6396 13.048 25.7812 18.392 26.0708 26.4081L27.8809 29.9867C28.7257 32.1338 29.6187 36.8576 26.4328 38.5753C24.6227 39.5296 21.0024 40.2931 21.0024 35.7124V31.4181C21.1231 29.7481 21.0748 26.5512 19.9163 27.1238L18.4682 28.9131C17.6235 30.106 15.7892 32.1338 15.21 30.7024L16.1401 24.8792C16.222 24.367 15.8263 23.9031 15.3076 23.9031C15.0153 23.9031 14.7373 24.0266 14.5476 24.249C12.7651 26.3391 9.51379 30.7673 8.69348 34.281C8.0901 36.1896 6.95575 40.8656 7.24537 44.3011C6.76781 43.593 6.43621 42.7957 6.33798 41.9473C6.12791 40.133 5.93648 37.0892 6.15929 33.5653L5.43523 34.9967C4.91013 36.9865 4.11845 40.8709 4.05445 44.1658C4.01152 46.3761 4.45926 49.6722 2.27099 49.986C2.2284 49.9921 2.18526 49.9963 2.14156 49.9984C1.43636 50.0324 1.05546 49.2606 1.02748 48.5551Z" stroke="white"/>
</svg>
