<svg width="94" height="23" viewBox="0 0 94 23" fill="none" xmlns="http://www.w3.org/2000/svg">
<path d="M11.915 17H8.44922L5.54736 12.8472L2.58398 17H0.18457L4.64502 11.5449L0.18457 5.15674H3.65039L6.45996 9.17627L9.51562 5.15674H11.915L7.3623 10.4683L11.915 17ZM23.9634 8.08936L22.4663 8.68408C22.2271 7.93213 21.8271 7.35449 21.2666 6.95117C20.7061 6.54785 20.0327 6.34619 19.2466 6.34619C18.8228 6.34619 18.4434 6.41455 18.1084 6.55127C17.7803 6.68115 17.4897 6.8623 17.2368 7.09473C16.9907 7.32715 16.7788 7.59717 16.6011 7.90479C16.4302 8.2124 16.29 8.54053 16.1807 8.88916C16.0713 9.23779 15.9927 9.6001 15.9448 9.97607C15.897 10.3452 15.873 10.7041 15.873 11.0527C15.873 11.4287 15.8936 11.8081 15.9346 12.1909C15.9756 12.5737 16.0439 12.9429 16.1396 13.2983C16.2422 13.647 16.3755 13.9751 16.5396 14.2827C16.7036 14.5835 16.9087 14.8467 17.1548 15.0723C17.4077 15.2979 17.7051 15.4756 18.0469 15.6055C18.3955 15.7354 18.7954 15.8003 19.2466 15.8003C19.6089 15.8003 19.9541 15.7456 20.2822 15.6362C20.6104 15.5269 20.9111 15.373 21.1846 15.1748C21.458 14.9766 21.7007 14.7407 21.9126 14.4673C22.1245 14.1938 22.292 13.8896 22.415 13.5547L23.9224 14.1084C23.6968 14.6484 23.396 15.1167 23.02 15.5132C22.6509 15.9028 22.2305 16.2275 21.7588 16.4873C21.2871 16.7402 20.7812 16.9282 20.2412 17.0513C19.7012 17.1743 19.1543 17.2358 18.6006 17.2358C17.7051 17.2358 16.8745 17.0854 16.1089 16.7847C15.3433 16.4771 14.6802 16.0498 14.1196 15.5029C13.5659 14.9492 13.1318 14.2964 12.8174 13.5444C12.5029 12.7856 12.3457 11.9551 12.3457 11.0527C12.3457 10.1436 12.4995 9.30957 12.8071 8.55078C13.1216 7.79199 13.5557 7.13916 14.1094 6.59229C14.6631 6.04541 15.3228 5.62158 16.0884 5.3208C16.854 5.02002 17.6914 4.86963 18.6006 4.86963C19.1748 4.86963 19.7354 4.93457 20.2822 5.06445C20.8291 5.1875 21.335 5.38232 21.7998 5.64893C22.2715 5.90869 22.6919 6.24023 23.061 6.64355C23.437 7.04688 23.7378 7.52881 23.9634 8.08936ZM36.0835 6.20264L34.1353 9.43262C34.0532 9.15918 33.9473 8.85156 33.8174 8.50977C33.6875 8.16797 33.5269 7.8501 33.3354 7.55615C33.144 7.25537 32.915 7.00586 32.6484 6.80762C32.3818 6.60254 32.0742 6.5 31.7256 6.5C31.4043 6.5 31.124 6.58203 30.8848 6.74609C30.6523 6.91016 30.4541 7.12549 30.29 7.39209C30.126 7.65186 29.9893 7.94922 29.8799 8.28418C29.7773 8.6123 29.6953 8.94727 29.6338 9.28906C29.5791 9.62402 29.5415 9.94873 29.521 10.2632C29.5005 10.5708 29.4902 10.8374 29.4902 11.063V17H26.0142V5.15674H27.3472L28.752 7.91504C28.9434 7.4707 29.1621 7.06396 29.4082 6.69482C29.6543 6.31885 29.938 5.99756 30.2593 5.73096C30.5806 5.45752 30.9429 5.24561 31.3462 5.09521C31.7563 4.94482 32.2178 4.86963 32.7305 4.86963C32.9971 4.86963 33.2944 4.89355 33.6226 4.94141C33.9507 4.98242 34.272 5.05762 34.5864 5.16699C34.9009 5.26953 35.1914 5.40625 35.458 5.57715C35.7246 5.74805 35.9331 5.95654 36.0835 6.20264ZM50.1313 11.0527C50.1313 11.9141 50.0015 12.7207 49.7417 13.4727C49.4819 14.2246 49.106 14.8809 48.6138 15.4414C48.1216 15.9951 47.52 16.4326 46.8091 16.7539C46.0981 17.0752 45.2915 17.2358 44.3892 17.2358C43.6987 17.2358 43.063 17.1025 42.4819 16.8359C41.9077 16.5625 41.4155 16.1455 41.0054 15.585V22.4653H37.5396V5.15674H38.8726L40.4106 7.73047C40.561 7.2998 40.7661 6.91016 41.0259 6.56152C41.2925 6.20605 41.5967 5.90527 41.9385 5.65918C42.2871 5.40625 42.6665 5.21143 43.0767 5.07471C43.4937 4.93799 43.9312 4.86963 44.3892 4.86963C45.2915 4.86963 46.0981 5.03027 46.8091 5.35156C47.52 5.67285 48.1216 6.11377 48.6138 6.67432C49.106 7.22803 49.4819 7.88086 49.7417 8.63281C50.0015 9.38477 50.1313 10.1914 50.1313 11.0527ZM46.6143 11.0527C46.6143 10.752 46.5972 10.4341 46.563 10.0991C46.5356 9.75732 46.4844 9.41895 46.4092 9.08398C46.334 8.74902 46.228 8.42773 46.0913 8.12012C45.9614 7.8125 45.7939 7.54248 45.5889 7.31006C45.3838 7.0708 45.1343 6.88281 44.8403 6.74609C44.5532 6.60254 44.2183 6.53076 43.8354 6.53076C43.439 6.53076 43.0938 6.59912 42.7998 6.73584C42.5127 6.87256 42.2632 7.06055 42.0513 7.2998C41.8462 7.53223 41.6753 7.80225 41.5386 8.10986C41.4087 8.41064 41.3062 8.72852 41.231 9.06348C41.1558 9.39844 41.1011 9.73682 41.0669 10.0786C41.0396 10.4204 41.0259 10.7451 41.0259 11.0527C41.0259 11.3262 41.0464 11.6304 41.0874 11.9653C41.1284 12.2935 41.1934 12.625 41.2822 12.96C41.3711 13.2949 41.4873 13.6196 41.6309 13.9341C41.7744 14.2485 41.9487 14.5288 42.1538 14.7749C42.3657 15.021 42.6084 15.2192 42.8818 15.3696C43.1621 15.5132 43.48 15.585 43.8354 15.585C44.2251 15.585 44.5635 15.5166 44.8506 15.3799C45.1377 15.2363 45.3838 15.0483 45.5889 14.8159C45.7939 14.5767 45.9614 14.3032 46.0913 13.9956C46.228 13.688 46.334 13.3667 46.4092 13.0317C46.4844 12.6968 46.5356 12.3584 46.563 12.0166C46.5972 11.6748 46.6143 11.3535 46.6143 11.0527ZM56.5811 17H53.105V6.53076H50.9517V5.15674H53.105V0.798828H56.5811V5.15674H60.1699V6.53076H56.5811V17ZM80.1035 10.0889C80.1035 10.9023 80.0078 11.75 79.8164 12.6318C79.625 13.5137 79.355 14.375 79.0063 15.2158C78.6646 16.0498 78.251 16.8394 77.7656 17.5845C77.2803 18.3296 76.7402 18.9756 76.1455 19.5225L74.8433 18.8149C75.0415 18.4595 75.2227 18.0596 75.3867 17.6152C75.5508 17.1709 75.7012 16.7026 75.8379 16.2104C75.9746 15.7183 76.0942 15.2124 76.1968 14.6929C76.2993 14.1733 76.3848 13.6572 76.4531 13.1445C76.5283 12.625 76.583 12.1226 76.6172 11.6372C76.6514 11.1519 76.6685 10.6973 76.6685 10.2734C76.6685 10.0342 76.6616 9.77441 76.6479 9.49414C76.6343 9.21387 76.6035 8.93359 76.5557 8.65332C76.5146 8.37305 76.4497 8.10645 76.3608 7.85352C76.272 7.59375 76.1489 7.36475 75.9917 7.1665C75.8413 6.96143 75.6499 6.80078 75.4175 6.68457C75.1919 6.56152 74.9185 6.5 74.5972 6.5C74.2827 6.5 74.0127 6.58545 73.7871 6.75635C73.5684 6.92041 73.3804 7.13574 73.2231 7.40234C73.0659 7.66895 72.9395 7.96973 72.8438 8.30469C72.7549 8.63965 72.6865 8.97803 72.6387 9.31982C72.5908 9.65479 72.5566 9.97607 72.5361 10.2837C72.5225 10.5913 72.5156 10.8511 72.5156 11.063V17H69.0601V11.4834C69.0601 11.2441 69.0635 10.957 69.0703 10.6221C69.0771 10.2803 69.0669 9.9248 69.0396 9.55566C69.019 9.18652 68.9746 8.8208 68.9062 8.4585C68.8447 8.08936 68.7422 7.76123 68.5986 7.47412C68.4619 7.18701 68.2739 6.95459 68.0347 6.77686C67.7954 6.59229 67.4946 6.5 67.1323 6.5C66.8247 6.5 66.5649 6.58545 66.353 6.75635C66.1479 6.92725 65.9736 7.14941 65.8301 7.42285C65.6934 7.68945 65.584 7.99365 65.502 8.33545C65.4268 8.67041 65.3687 9.00879 65.3276 9.35059C65.2935 9.68555 65.2729 10.0068 65.2661 10.3145C65.2593 10.6152 65.2559 10.8647 65.2559 11.063V17H61.7798V5.15674H63.1128L64.3843 7.91504C64.6714 6.95801 65.1226 6.21289 65.7378 5.67969C66.3599 5.13965 67.1836 4.86963 68.209 4.86963C69.1318 4.86963 69.8975 5.06104 70.5059 5.44385C71.1143 5.82666 71.5928 6.44873 71.9414 7.31006C72.1396 6.93408 72.3584 6.5957 72.5977 6.29492C72.8438 5.99414 73.1138 5.73779 73.4077 5.52588C73.7085 5.31396 74.04 5.15332 74.4023 5.04395C74.7646 4.92773 75.1646 4.86963 75.6021 4.86963C76.4087 4.86963 77.0957 5.00293 77.6631 5.26953C78.2373 5.5293 78.7056 5.8916 79.0679 6.35645C79.4302 6.82129 79.6934 7.375 79.8574 8.01758C80.0215 8.65332 80.1035 9.34375 80.1035 10.0889ZM85.2612 11.3809C85.6851 11.4766 86.1089 11.5518 86.5327 11.6064C86.9565 11.6611 87.3838 11.6885 87.8145 11.6885C88.2656 11.6885 88.6826 11.6475 89.0654 11.5654C89.4551 11.4766 89.79 11.333 90.0703 11.1348C90.3574 10.9297 90.583 10.6597 90.7471 10.3247C90.9111 9.98975 90.9932 9.57275 90.9932 9.07373C90.9932 8.67041 90.9385 8.30127 90.8291 7.96631C90.7197 7.63135 90.5557 7.34424 90.3369 7.10498C90.125 6.86572 89.8618 6.68115 89.5474 6.55127C89.2329 6.41455 88.8672 6.34619 88.4502 6.34619C88.0605 6.34619 87.7085 6.41797 87.394 6.56152C87.0864 6.70508 86.813 6.8999 86.5737 7.146C86.3413 7.38525 86.1396 7.66553 85.9688 7.98682C85.8047 8.30811 85.668 8.64307 85.5586 8.9917C85.4492 9.34033 85.3706 9.69238 85.3228 10.0479C85.2749 10.4033 85.251 10.7383 85.251 11.0527C85.251 11.1074 85.251 11.1621 85.251 11.2168C85.251 11.2715 85.2544 11.3262 85.2612 11.3809ZM93.8027 9.04297C93.8027 9.52832 93.7241 9.9624 93.5669 10.3452C93.4097 10.7212 93.1943 11.0527 92.9209 11.3398C92.6543 11.627 92.3433 11.8696 91.9878 12.0679C91.6323 12.2661 91.2529 12.4302 90.8496 12.5601C90.4463 12.6831 90.0293 12.772 89.5986 12.8267C89.1748 12.8813 88.7612 12.9087 88.3579 12.9087C87.8452 12.9087 87.3394 12.8745 86.8403 12.8062C86.3413 12.731 85.8491 12.6147 85.3638 12.4575C85.439 12.9087 85.5586 13.3394 85.7227 13.7495C85.8867 14.1528 86.1055 14.5083 86.3789 14.8159C86.6523 15.1167 86.9873 15.356 87.3838 15.5337C87.7871 15.7114 88.2622 15.8003 88.8091 15.8003C89.1714 15.8003 89.5166 15.7456 89.8447 15.6362C90.1729 15.5269 90.4736 15.373 90.7471 15.1748C91.0205 14.9766 91.2598 14.7407 91.4648 14.4673C91.6768 14.1938 91.8477 13.8896 91.9775 13.5547L93.4746 14.1084C93.249 14.6484 92.938 15.1167 92.5415 15.5132C92.1519 15.9028 91.7075 16.2275 91.2085 16.4873C90.7163 16.7402 90.1899 16.9282 89.6294 17.0513C89.0757 17.1743 88.5254 17.2358 87.9785 17.2358C87.0762 17.2358 86.2422 17.0854 85.4766 16.7847C84.7109 16.4771 84.0513 16.0498 83.4976 15.5029C82.9438 14.9561 82.5098 14.3032 82.1953 13.5444C81.8809 12.7856 81.7236 11.9551 81.7236 11.0527C81.7236 10.1504 81.8809 9.31982 82.1953 8.56104C82.5098 7.80225 82.9438 7.14941 83.4976 6.60254C84.0513 6.05566 84.7109 5.63184 85.4766 5.33105C86.2422 5.02344 87.0762 4.86963 87.9785 4.86963C88.416 4.86963 88.8638 4.90039 89.3218 4.96191C89.7798 5.02344 90.2241 5.12256 90.6548 5.25928C91.0854 5.38916 91.4922 5.56006 91.875 5.77197C92.2578 5.98389 92.5894 6.24707 92.8696 6.56152C93.1567 6.86914 93.3823 7.22803 93.5464 7.63818C93.7173 8.04834 93.8027 8.5166 93.8027 9.04297Z" fill="white"/>
</svg>
